<svg width="169" height="93" viewBox="0 0 169 93" fill="none" xmlns="http://www.w3.org/2000/svg">
<g clip-path="url(#clip0_1_2)">
<path d="M0.576705 93L2.32386 82.1761L40.8892 42.5028L41.0597 42.0341H10.1222L12.5511 27.5455H65.392L63.517 39.3494L26.9972 78.0426L26.8267 78.5114H58.0199L55.6761 93H0.576705ZM58.7788 93L69.6879 27.5455H87.8413L76.9322 93H58.7788ZM80.6396 19.0227C77.9408 19.0227 75.7107 18.1278 73.9493 16.3381C72.2163 14.5199 71.5061 12.3608 71.8186 9.86079C72.1311 7.30398 73.3527 5.14489 75.4834 3.38352C77.6141 1.59375 80.0288 0.698858 82.7277 0.698858C85.4266 0.698858 87.6283 1.59375 89.3328 3.38352C91.0374 5.14489 91.7476 7.30398 91.4635 9.86079C91.1794 12.3608 89.972 14.5199 87.8413 16.3381C85.7391 18.1278 83.3385 19.0227 80.6396 19.0227ZM113.316 5.72727L98.8276 93H80.6741L95.1628 5.72727H113.316ZM132.229 94.2784C125.524 94.2784 119.97 92.9148 115.567 90.1875C111.163 87.4318 108.067 83.5398 106.277 78.5114C104.515 73.4545 104.217 67.4744 105.382 60.571C106.518 53.8381 108.805 47.929 112.243 42.8438C115.709 37.7585 120.055 33.7955 125.283 30.9545C130.51 28.1136 136.334 26.6932 142.754 26.6932C147.072 26.6932 150.979 27.3892 154.473 28.7812C157.996 30.1449 160.922 32.2187 163.251 35.0028C165.581 37.7585 167.172 41.2102 168.024 45.358C168.905 49.5057 168.89 54.3636 167.981 59.9318L167.172 64.9176H111.944L113.692 53.6676H151.873C152.3 51.054 152.129 48.7386 151.362 46.7216C150.595 44.7045 149.317 43.1278 147.527 41.9915C145.737 40.8267 143.535 40.2443 140.922 40.2443C138.251 40.2443 135.751 40.8977 133.422 42.2045C131.092 43.5114 129.132 45.2301 127.541 47.3608C125.979 49.4631 124.97 51.75 124.515 54.2216L122.513 65.3864C121.944 68.8239 122.058 71.679 122.854 73.9517C123.677 76.2244 125.098 77.929 127.115 79.0653C129.132 80.1733 131.689 80.7273 134.785 80.7273C136.802 80.7273 138.692 80.4432 140.453 79.875C142.243 79.3068 143.834 78.4688 145.226 77.3608C146.618 76.2244 147.754 74.8182 148.635 73.142L165.212 74.25C163.677 78.2841 161.348 81.8068 158.223 84.8182C155.098 87.8011 151.334 90.1307 146.93 91.8068C142.555 93.4545 137.655 94.2784 132.229 94.2784Z" fill="black"/>
</g>
<defs>
<clipPath id="clip0_1_2">
<rect width="169" height="93" fill="white"/>
</clipPath>
</defs>
</svg>
